<svg width="340" height="336" viewBox="0 0 340 336" fill="none" xmlns="http://www.w3.org/2000/svg">
<path opacity="0.5" fill-rule="evenodd" clip-rule="evenodd" d="M170.002 1.43056C210.504 1.43056 249.662 16.0016 280.254 42.4646L281.193 41.3781C250.341 14.694 210.853 0 170.002 0C132.875 0 97.6115 11.7493 68.0088 33.9599L68.8744 35.1102C98.2213 13.0815 133.195 1.43056 170.002 1.43056ZM93.9474 321.945C36.0012 292.921 0 234.671 0 169.927C0 155.73 1.7558 141.626 5.21329 128.003L6.60514 128.357C3.17716 141.862 1.43611 155.848 1.43611 169.927C1.43611 234.125 37.1324 291.884 94.5966 320.662L93.9523 321.945H93.9474ZM206.191 335.995L205.886 334.594C282.762 317.934 338.564 248.677 338.564 169.927C338.564 159.82 337.664 149.683 335.879 139.807L337.295 139.556C339.09 149.521 340.005 159.741 340 169.932C340 208.97 326.431 247.099 301.786 277.288C277.485 307.059 243.539 327.908 206.191 336V335.995Z" fill="#FF9048"/>
<path fill-rule="evenodd" clip-rule="evenodd" d="M167.917 317.584L170.002 317.599V317.594C251.463 317.594 317.74 249.042 317.74 169.233C317.74 89.4243 255.589 24.314 176.249 21L176.008 26.7638C252.264 29.9543 311.996 90.6047 311.996 169.233C311.996 247.861 248.295 311.831 169.998 311.831L167.996 311.816L167.917 317.584ZM63.3441 271.902C63.3449 271.902 63.3456 271.903 63.3464 271.904L63.3366 271.909L63.3441 271.902ZM63.3441 271.902L67.4826 267.913C42.0162 241.238 27.9993 206.201 27.9993 169.238C27.9993 129.83 44.4704 91.7999 73.1926 64.9123L69.2777 60.6944C39.3997 88.6736 22.2598 128.235 22.2598 169.238C22.2598 207.692 36.8463 244.15 63.3441 271.902Z" fill="#FF6400"/>
</svg>
