<svg width="80" height="81" viewBox="0 0 80 81" fill="none" xmlns="http://www.w3.org/2000/svg">
<path fill-rule="evenodd" clip-rule="evenodd" d="M79.9829 17.465C79.9756 17.347 79.9526 17.2296 79.9137 17.1182C79.9097 17.1063 79.906 17.0945 79.9023 17.0827C79.8925 17.0518 79.883 17.0216 79.8696 16.991C79.8037 16.844 79.7122 16.7102 79.5996 16.5955L63.4137 0.395508C63.2991 0.282129 63.1648 0.190503 63.0172 0.125244C62.9888 0.112177 62.96 0.102744 62.9309 0.0932028L62.9309 0.0931876L62.9309 0.0931844C62.9189 0.0892552 62.9068 0.0853073 62.8947 0.0810791C62.7801 0.0415284 62.6616 0.0177979 62.5411 0.0105469C62.5285 0.0130642 62.5155 0.00969572 62.5017 0.00611427C62.4902 0.003131 62.4782 0 62.4653 0H22.0007C18.2782 0.00461427 15.2612 3.02366 15.2566 6.75V16.6858C5.98408 20.7787 0 29.965 0 40.1084C0 50.2519 5.98408 59.4382 15.2566 63.5311V74.25C15.2612 77.9763 18.2782 80.9954 22.0007 81H73.2559C76.979 80.9954 79.996 77.9763 80 74.25V17.55C80 17.5338 79.9957 17.5188 79.9913 17.5037C79.9877 17.4911 79.9841 17.4784 79.9829 17.465ZM75.395 16.2H65.163C64.4181 16.2 63.8141 15.5955 63.8141 14.85V4.60898L75.395 16.2ZM9.43319 23.8715C5.13119 28.1773 2.71806 34.0189 2.72596 40.1084C2.72728 48.4596 7.26045 56.1516 14.5631 60.1917C21.8657 64.2324 30.7845 63.9833 37.8506 59.5417C40.7689 57.7112 43.2354 55.2432 45.0657 52.323C47.3734 48.6686 48.5945 44.432 48.5846 40.1084C48.576 38.9575 48.4818 37.8086 48.3027 36.6715C46.7576 26.2967 38.3637 18.3008 27.934 17.2692C27.1832 17.196 26.4225 17.1584 25.6559 17.1584C19.5724 17.1505 13.7352 19.5658 9.43319 23.8715ZM41.3215 60.3881C41.5059 60.2451 41.6883 60.1033 41.8688 59.9563C42.5346 59.4198 43.1722 58.8496 43.7801 58.2484C44.3807 57.64 44.9504 57.0026 45.4865 56.3368C45.6194 56.1733 45.7481 56.0071 45.8772 55.8402L45.8777 55.8396L45.9179 55.7877C45.9844 55.7007 46.0532 55.6157 46.1219 55.5306C46.222 55.4068 46.3219 55.2832 46.4145 55.1542L57.913 66.6767C58.6744 67.4314 59.1031 68.4598 59.1031 69.5322C59.1031 70.6054 58.6744 71.6331 57.913 72.3885C56.3205 73.929 53.7948 73.929 52.2023 72.3885L40.6886 60.8851C40.8192 60.79 40.9449 60.6887 41.0704 60.5875C41.1537 60.5204 41.2369 60.4533 41.3215 60.3881ZM22.0007 78.3H73.2559C75.4912 78.3 77.3024 76.4866 77.3024 74.25V18.9H65.163C62.9283 18.9 61.1165 17.0866 61.1165 14.85V2.7H21.9967C19.7621 2.7 17.9503 4.5134 17.9503 6.75V15.6318C17.9952 15.6173 18.0405 15.6054 18.0857 15.5936C18.1248 15.5834 18.1638 15.5732 18.2025 15.5613C18.3508 15.5172 18.498 15.4789 18.6448 15.4406C18.7223 15.4204 18.7996 15.4003 18.8769 15.3793C19.3761 15.2416 19.8793 15.1176 20.3864 15.0122C20.6407 14.9588 20.8962 14.91 21.1524 14.8652C21.6661 14.7755 22.1818 14.7017 22.7008 14.6437C22.7719 14.6354 22.8429 14.6266 22.9139 14.6178C23.0746 14.598 23.2353 14.5781 23.3969 14.5639C24.1444 14.5006 24.8966 14.4584 25.6559 14.4584C32.458 14.4387 38.9848 17.1433 43.7814 21.9698C47.9754 26.1523 50.5841 31.6657 51.1597 37.564C51.2427 38.4051 51.2835 39.2535 51.2835 40.1084C51.2875 44.5704 50.1198 48.9553 47.8983 52.824L59.819 64.7624C61.65 66.4387 62.4126 68.9865 61.8047 71.3944C61.1975 73.8024 59.3178 75.6817 56.9113 76.2875C54.5054 76.894 51.9606 76.128 50.2871 74.2948L38.3611 62.3703C34.4957 64.5937 30.1147 65.7617 25.6559 65.7584C24.8966 65.7584 24.1444 65.7169 23.3969 65.653C23.2427 65.6399 23.0902 65.6211 22.9374 65.6022C22.8591 65.5925 22.7808 65.5828 22.7021 65.5739C22.1818 65.5139 21.6635 65.4427 21.1498 65.3524C20.8949 65.3076 20.6426 65.2588 20.3904 65.2061C19.8767 65.1052 19.3682 64.9701 18.8637 64.8349C18.7844 64.8129 18.705 64.7919 18.6257 64.771C18.4867 64.7343 18.348 64.6976 18.2104 64.6556C18.1717 64.6439 18.1324 64.6338 18.0932 64.6238C18.0464 64.6118 17.9997 64.5998 17.9542 64.5851V74.25C17.9542 76.4866 19.766 78.3 22.0007 78.3Z" fill="url(#paint0_linear_1_250)"/>
<path fill-rule="evenodd" clip-rule="evenodd" d="M79.9829 17.465C79.9756 17.347 79.9526 17.2296 79.9137 17.1182C79.9097 17.1063 79.906 17.0945 79.9023 17.0827C79.8925 17.0518 79.883 17.0216 79.8696 16.991C79.8037 16.844 79.7122 16.7102 79.5996 16.5955L63.4137 0.395508C63.2991 0.282129 63.1648 0.190503 63.0172 0.125244C62.9888 0.112177 62.96 0.102744 62.9309 0.0932028L62.9309 0.0931876L62.9309 0.0931844C62.9189 0.0892552 62.9068 0.0853073 62.8947 0.0810791C62.7801 0.0415284 62.6616 0.0177979 62.5411 0.0105469C62.5285 0.0130642 62.5155 0.00969572 62.5017 0.00611427C62.4902 0.003131 62.4782 0 62.4653 0H22.0007C18.2782 0.00461427 15.2612 3.02366 15.2566 6.75V16.6858C5.98408 20.7787 0 29.965 0 40.1084C0 50.2519 5.98408 59.4382 15.2566 63.5311V74.25C15.2612 77.9763 18.2782 80.9954 22.0007 81H73.2559C76.979 80.9954 79.996 77.9763 80 74.25V17.55C80 17.5338 79.9957 17.5188 79.9913 17.5037C79.9877 17.4911 79.9841 17.4784 79.9829 17.465ZM75.395 16.2H65.163C64.4181 16.2 63.8141 15.5955 63.8141 14.85V4.60898L75.395 16.2ZM9.43319 23.8715C5.13119 28.1773 2.71806 34.0189 2.72596 40.1084C2.72728 48.4596 7.26045 56.1516 14.5631 60.1917C21.8657 64.2324 30.7845 63.9833 37.8506 59.5417C40.7689 57.7112 43.2354 55.2432 45.0657 52.323C47.3734 48.6686 48.5945 44.432 48.5846 40.1084C48.576 38.9575 48.4818 37.8086 48.3027 36.6715C46.7576 26.2967 38.3637 18.3008 27.934 17.2692C27.1832 17.196 26.4225 17.1584 25.6559 17.1584C19.5724 17.1505 13.7352 19.5658 9.43319 23.8715ZM41.3215 60.3881C41.5059 60.2451 41.6883 60.1033 41.8688 59.9563C42.5346 59.4198 43.1722 58.8496 43.7801 58.2484C44.3807 57.64 44.9504 57.0026 45.4865 56.3368C45.6194 56.1733 45.7481 56.0071 45.8772 55.8402L45.8777 55.8396L45.9179 55.7877C45.9844 55.7007 46.0532 55.6157 46.1219 55.5306C46.222 55.4068 46.3219 55.2832 46.4145 55.1542L57.913 66.6767C58.6744 67.4314 59.1031 68.4598 59.1031 69.5322C59.1031 70.6054 58.6744 71.6331 57.913 72.3885C56.3205 73.929 53.7948 73.929 52.2023 72.3885L40.6886 60.8851C40.8192 60.79 40.9449 60.6887 41.0704 60.5875C41.1537 60.5204 41.2369 60.4533 41.3215 60.3881ZM22.0007 78.3H73.2559C75.4912 78.3 77.3024 76.4866 77.3024 74.25V18.9H65.163C62.9283 18.9 61.1165 17.0866 61.1165 14.85V2.7H21.9967C19.7621 2.7 17.9503 4.5134 17.9503 6.75V15.6318C17.9952 15.6173 18.0405 15.6054 18.0857 15.5936C18.1248 15.5834 18.1638 15.5732 18.2025 15.5613C18.3508 15.5172 18.498 15.4789 18.6448 15.4406C18.7223 15.4204 18.7996 15.4003 18.8769 15.3793C19.3761 15.2416 19.8793 15.1176 20.3864 15.0122C20.6407 14.9588 20.8962 14.91 21.1524 14.8652C21.6661 14.7755 22.1818 14.7017 22.7008 14.6437C22.7719 14.6354 22.8429 14.6266 22.9139 14.6178C23.0746 14.598 23.2353 14.5781 23.3969 14.5639C24.1444 14.5006 24.8966 14.4584 25.6559 14.4584C32.458 14.4387 38.9848 17.1433 43.7814 21.9698C47.9754 26.1523 50.5841 31.6657 51.1597 37.564C51.2427 38.4051 51.2835 39.2535 51.2835 40.1084C51.2875 44.5704 50.1198 48.9553 47.8983 52.824L59.819 64.7624C61.65 66.4387 62.4126 68.9865 61.8047 71.3944C61.1975 73.8024 59.3178 75.6817 56.9113 76.2875C54.5054 76.894 51.9606 76.128 50.2871 74.2948L38.3611 62.3703C34.4957 64.5937 30.1147 65.7617 25.6559 65.7584C24.8966 65.7584 24.1444 65.7169 23.3969 65.653C23.2427 65.6399 23.0902 65.6211 22.9374 65.6022C22.8591 65.5925 22.7808 65.5828 22.7021 65.5739C22.1818 65.5139 21.6635 65.4427 21.1498 65.3524C20.8949 65.3076 20.6426 65.2588 20.3904 65.2061C19.8767 65.1052 19.3682 64.9701 18.8637 64.8349C18.7844 64.8129 18.705 64.7919 18.6257 64.771C18.4867 64.7343 18.348 64.6976 18.2104 64.6556C18.1717 64.6439 18.1324 64.6338 18.0932 64.6238C18.0464 64.6118 17.9997 64.5998 17.9542 64.5851V74.25C17.9542 76.4866 19.766 78.3 22.0007 78.3Z" fill="url(#paint1_linear_1_250)"/>
<path d="M54.7212 9.44998C54.7212 8.70444 54.1173 8.09998 53.3724 8.09998H23.6983C22.9534 8.09998 22.3495 8.70444 22.3495 9.44998C22.3495 10.1955 22.9534 10.8 23.6983 10.8H53.3724C54.1173 10.8 54.7212 10.1955 54.7212 9.44998Z" fill="url(#paint2_linear_1_250)"/>
<path d="M54.7212 9.44998C54.7212 8.70444 54.1173 8.09998 53.3724 8.09998H23.6983C22.9534 8.09998 22.3495 8.70444 22.3495 9.44998C22.3495 10.1955 22.9534 10.8 23.6983 10.8H53.3724C54.1173 10.8 54.7212 10.1955 54.7212 9.44998Z" fill="url(#paint3_linear_1_250)"/>
<path d="M69.5582 32.4H53.3724C52.6275 32.4 52.0236 33.0045 52.0236 33.75C52.0236 34.4956 52.6275 35.1 53.3724 35.1H69.5582C70.3031 35.1 70.9071 34.4956 70.9071 33.75C70.9071 33.0045 70.3031 32.4 69.5582 32.4Z" fill="url(#paint4_linear_1_250)"/>
<path d="M69.5582 32.4H53.3724C52.6275 32.4 52.0236 33.0045 52.0236 33.75C52.0236 34.4956 52.6275 35.1 53.3724 35.1H69.5582C70.3031 35.1 70.9071 34.4956 70.9071 33.75C70.9071 33.0045 70.3031 32.4 69.5582 32.4Z" fill="url(#paint5_linear_1_250)"/>
<path d="M69.5582 40.5H53.3724C52.6275 40.5 52.0236 41.1045 52.0236 41.85C52.0236 42.5955 52.6275 43.2 53.3724 43.2H69.5582C70.3031 43.2 70.9071 42.5955 70.9071 41.85C70.9071 41.1045 70.3031 40.5 69.5582 40.5Z" fill="url(#paint6_linear_1_250)"/>
<path d="M69.5582 40.5H53.3724C52.6275 40.5 52.0236 41.1045 52.0236 41.85C52.0236 42.5955 52.6275 43.2 53.3724 43.2H69.5582C70.3031 43.2 70.9071 42.5955 70.9071 41.85C70.9071 41.1045 70.3031 40.5 69.5582 40.5Z" fill="url(#paint7_linear_1_250)"/>
<path d="M70.9071 49.95C70.9071 49.2044 70.3031 48.6 69.5582 48.6H52.0236C51.2787 48.6 50.6747 49.2044 50.6747 49.95C50.6747 50.6955 51.2787 51.3 52.0236 51.3H69.5582C70.3031 51.3 70.9071 50.6955 70.9071 49.95Z" fill="url(#paint8_linear_1_250)"/>
<path d="M70.9071 49.95C70.9071 49.2044 70.3031 48.6 69.5582 48.6H52.0236C51.2787 48.6 50.6747 49.2044 50.6747 49.95C50.6747 50.6955 51.2787 51.3 52.0236 51.3H69.5582C70.3031 51.3 70.9071 50.6955 70.9071 49.95Z" fill="url(#paint9_linear_1_250)"/>
<path d="M70.907 58.05C70.907 57.3045 70.3031 56.7 69.5582 56.7H57.4188C56.6739 56.7 56.07 57.3045 56.07 58.05C56.07 58.7955 56.6739 59.4 57.4188 59.4H69.5582C70.3031 59.4 70.907 58.7955 70.907 58.05Z" fill="url(#paint10_linear_1_250)"/>
<path d="M70.907 58.05C70.907 57.3045 70.3031 56.7 69.5582 56.7H57.4188C56.6739 56.7 56.07 57.3045 56.07 58.05C56.07 58.7955 56.6739 59.4 57.4188 59.4H69.5582C70.3031 59.4 70.907 58.7955 70.907 58.05Z" fill="url(#paint11_linear_1_250)"/>
<path d="M54.7212 17.55C54.7212 16.8045 54.1172 16.2 53.3724 16.2H42.5818C41.8369 16.2 41.233 16.8045 41.233 17.55C41.233 18.2955 41.8369 18.9 42.5818 18.9H53.3724C54.1172 18.9 54.7212 18.2955 54.7212 17.55Z" fill="url(#paint12_linear_1_250)"/>
<path d="M54.7212 17.55C54.7212 16.8045 54.1172 16.2 53.3724 16.2H42.5818C41.8369 16.2 41.233 16.8045 41.233 17.55C41.233 18.2955 41.8369 18.9 42.5818 18.9H53.3724C54.1172 18.9 54.7212 18.2955 54.7212 17.55Z" fill="url(#paint13_linear_1_250)"/>
<path d="M70.9071 25.65C70.9071 24.9045 70.3031 24.3 69.5583 24.3H49.3259C48.5811 24.3 47.9771 24.9045 47.9771 25.65C47.9771 26.3955 48.5811 27 49.3259 27H69.5583C70.3031 27 70.9071 26.3955 70.9071 25.65Z" fill="url(#paint14_linear_1_250)"/>
<path d="M70.9071 25.65C70.9071 24.9045 70.3031 24.3 69.5583 24.3H49.3259C48.5811 24.3 47.9771 24.9045 47.9771 25.65C47.9771 26.3955 48.5811 27 49.3259 27H69.5583C70.3031 27 70.9071 26.3955 70.9071 25.65Z" fill="url(#paint15_linear_1_250)"/>
<path d="M19.6519 33.75H29.0936C29.8385 33.75 30.4424 33.1455 30.4424 32.4C30.4424 31.6545 29.8385 31.05 29.0936 31.05H19.6519C18.907 31.05 18.303 31.6545 18.303 32.4C18.303 33.1455 18.907 33.75 19.6519 33.75Z" fill="url(#paint16_linear_1_250)"/>
<path d="M19.6519 33.75H29.0936C29.8385 33.75 30.4424 33.1455 30.4424 32.4C30.4424 31.6545 29.8385 31.05 29.0936 31.05H19.6519C18.907 31.05 18.303 31.6545 18.303 32.4C18.303 33.1455 18.907 33.75 19.6519 33.75Z" fill="url(#paint17_linear_1_250)"/>
<path d="M35.8377 40.5C35.8377 39.7544 35.2338 39.15 34.4889 39.15H14.2566C13.5117 39.15 12.9078 39.7544 12.9078 40.5C12.9078 41.2455 13.5117 41.85 14.2566 41.85H34.4889C35.2338 41.85 35.8377 41.2455 35.8377 40.5Z" fill="url(#paint18_linear_1_250)"/>
<path d="M35.8377 40.5C35.8377 39.7544 35.2338 39.15 34.4889 39.15H14.2566C13.5117 39.15 12.9078 39.7544 12.9078 40.5C12.9078 41.2455 13.5117 41.85 14.2566 41.85H34.4889C35.2338 41.85 35.8377 41.2455 35.8377 40.5Z" fill="url(#paint19_linear_1_250)"/>
<path d="M29.0936 47.25H19.6519C18.907 47.25 18.303 47.8545 18.303 48.6C18.303 49.3455 18.907 49.95 19.6519 49.95H29.0936C29.8385 49.95 30.4424 49.3455 30.4424 48.6C30.4424 47.8545 29.8385 47.25 29.0936 47.25Z" fill="url(#paint20_linear_1_250)"/>
<path d="M29.0936 47.25H19.6519C18.907 47.25 18.303 47.8545 18.303 48.6C18.303 49.3455 18.907 49.95 19.6519 49.95H29.0936C29.8385 49.95 30.4424 49.3455 30.4424 48.6C30.4424 47.8545 29.8385 47.25 29.0936 47.25Z" fill="url(#paint21_linear_1_250)"/>
<path fill-rule="evenodd" clip-rule="evenodd" d="M42.126 50.2756C40.2747 53.5129 37.5467 56.1614 34.257 57.9149V57.9228C27.989 61.3215 20.396 61.164 14.2743 57.5075C8.15255 53.8517 4.40838 47.2381 4.42089 40.1032C4.41299 36.7776 5.22834 33.5021 6.79385 30.5694C11.7676 21.2598 23.0528 17.3364 32.7218 21.5558C42.3901 25.7752 47.1979 36.7216 43.7679 46.7048C43.7465 46.7656 43.7219 46.8252 43.6973 46.8847C43.675 46.9389 43.6527 46.9929 43.6329 47.0476L43.6264 47.0655C43.4845 47.456 43.347 47.8341 43.1725 48.2315C42.996 48.6349 42.7964 49.0291 42.5916 49.4233C42.5687 49.468 42.5477 49.5134 42.5267 49.5588C42.5018 49.6125 42.4769 49.6664 42.4487 49.7193C42.3865 49.8368 42.3183 49.951 42.2499 50.0653C42.2082 50.1351 42.1664 50.2049 42.126 50.2756ZM12.2563 52.5149C13.4372 53.7001 14.7821 54.7086 16.2501 55.5095V55.5148C21.4629 58.3697 27.7678 58.3796 32.9892 55.5405C35.999 53.9321 38.4648 51.4661 40.0731 48.4543V48.4431C43.7231 41.614 42.4981 33.2002 37.0521 27.6981C30.9027 21.5749 21.2054 20.8683 14.2354 26.0356C7.26541 31.2029 5.1144 40.6931 9.17404 48.3653C9.44341 48.8683 9.73649 49.358 10.0553 49.8353C10.7 50.7983 11.437 51.6955 12.2563 52.5149Z" fill="url(#paint22_linear_1_250)"/>
<path fill-rule="evenodd" clip-rule="evenodd" d="M42.126 50.2756C40.2747 53.5129 37.5467 56.1614 34.257 57.9149V57.9228C27.989 61.3215 20.396 61.164 14.2743 57.5075C8.15255 53.8517 4.40838 47.2381 4.42089 40.1032C4.41299 36.7776 5.22834 33.5021 6.79385 30.5694C11.7676 21.2598 23.0528 17.3364 32.7218 21.5558C42.3901 25.7752 47.1979 36.7216 43.7679 46.7048C43.7465 46.7656 43.7219 46.8252 43.6973 46.8847C43.675 46.9389 43.6527 46.9929 43.6329 47.0476L43.6264 47.0655C43.4845 47.456 43.347 47.8341 43.1725 48.2315C42.996 48.6349 42.7964 49.0291 42.5916 49.4233C42.5687 49.468 42.5477 49.5134 42.5267 49.5588C42.5018 49.6125 42.4769 49.6664 42.4487 49.7193C42.3865 49.8368 42.3183 49.951 42.2499 50.0653C42.2082 50.1351 42.1664 50.2049 42.126 50.2756ZM12.2563 52.5149C13.4372 53.7001 14.7821 54.7086 16.2501 55.5095V55.5148C21.4629 58.3697 27.7678 58.3796 32.9892 55.5405C35.999 53.9321 38.4648 51.4661 40.0731 48.4543V48.4431C43.7231 41.614 42.4981 33.2002 37.0521 27.6981C30.9027 21.5749 21.2054 20.8683 14.2354 26.0356C7.26541 31.2029 5.1144 40.6931 9.17404 48.3653C9.44341 48.8683 9.73649 49.358 10.0553 49.8353C10.7 50.7983 11.437 51.6955 12.2563 52.5149Z" fill="url(#paint23_linear_1_250)"/>
<path d="M72.2559 64.8C71.511 64.8 70.9071 65.4045 70.9071 66.15V71.55C70.9071 72.2955 70.3031 72.9 69.5583 72.9H64.163C63.4181 72.9 62.8141 73.5045 62.8141 74.25C62.8141 74.9955 63.4181 75.6 64.163 75.6H69.5583C71.7936 75.6 73.6047 73.7866 73.6047 71.55V66.15C73.6047 65.4045 73.0008 64.8 72.2559 64.8Z" fill="url(#paint24_linear_1_250)"/>
<path d="M72.2559 64.8C71.511 64.8 70.9071 65.4045 70.9071 66.15V71.55C70.9071 72.2955 70.3031 72.9 69.5583 72.9H64.163C63.4181 72.9 62.8141 73.5045 62.8141 74.25C62.8141 74.9955 63.4181 75.6 64.163 75.6H69.5583C71.7936 75.6 73.6047 73.7866 73.6047 71.55V66.15C73.6047 65.4045 73.0008 64.8 72.2559 64.8Z" fill="url(#paint25_linear_1_250)"/>
<defs>
<linearGradient id="paint0_linear_1_250" x1="86.7031" y1="84.3804" x2="86.7031" y2="-10.1641" gradientUnits="userSpaceOnUse">
<stop stop-color="#006DF0"/>
<stop offset="1" stop-color="#00E7F0"/>
</linearGradient>
<linearGradient id="paint1_linear_1_250" x1="97.1215" y1="95.711" x2="126.866" y2="-19.7835" gradientUnits="userSpaceOnUse">
<stop stop-color="#FBA36A"/>
<stop offset="1" stop-color="#D75400"/>
</linearGradient>
<linearGradient id="paint2_linear_1_250" x1="605.308" y1="84.3804" x2="605.308" y2="-10.1642" gradientUnits="userSpaceOnUse">
<stop stop-color="#006DF0"/>
<stop offset="1" stop-color="#00E7F0"/>
</linearGradient>
<linearGradient id="paint3_linear_1_250" x1="61.6493" y1="11.2903" x2="61.7364" y2="7.18703" gradientUnits="userSpaceOnUse">
<stop stop-color="#FBA36A"/>
<stop offset="1" stop-color="#D75400"/>
</linearGradient>
<linearGradient id="paint4_linear_1_250" x1="392.083" y1="84.3804" x2="392.083" y2="-10.1641" gradientUnits="userSpaceOnUse">
<stop stop-color="#006DF0"/>
<stop offset="1" stop-color="#00E7F0"/>
</linearGradient>
<linearGradient id="paint5_linear_1_250" x1="74.9485" y1="35.5904" x2="75.0976" y2="31.4907" gradientUnits="userSpaceOnUse">
<stop stop-color="#FBA36A"/>
<stop offset="1" stop-color="#D75400"/>
</linearGradient>
<linearGradient id="paint6_linear_1_250" x1="392.083" y1="84.3804" x2="392.083" y2="-10.1642" gradientUnits="userSpaceOnUse">
<stop stop-color="#006DF0"/>
<stop offset="1" stop-color="#00E7F0"/>
</linearGradient>
<linearGradient id="paint7_linear_1_250" x1="74.9485" y1="43.6904" x2="75.0976" y2="39.5906" gradientUnits="userSpaceOnUse">
<stop stop-color="#FBA36A"/>
<stop offset="1" stop-color="#D75400"/>
</linearGradient>
<linearGradient id="paint8_linear_1_250" x1="415.024" y1="84.3804" x2="415.024" y2="-10.1642" gradientUnits="userSpaceOnUse">
<stop stop-color="#006DF0"/>
<stop offset="1" stop-color="#00E7F0"/>
</linearGradient>
<linearGradient id="paint9_linear_1_250" x1="75.2372" y1="51.7903" x2="75.3763" y2="47.6899" gradientUnits="userSpaceOnUse">
<stop stop-color="#FBA36A"/>
<stop offset="1" stop-color="#D75400"/>
</linearGradient>
<linearGradient id="paint10_linear_1_250" x1="323.259" y1="84.3804" x2="323.259" y2="-10.1641" gradientUnits="userSpaceOnUse">
<stop stop-color="#006DF0"/>
<stop offset="1" stop-color="#00E7F0"/>
</linearGradient>
<linearGradient id="paint11_linear_1_250" x1="74.0824" y1="59.8904" x2="74.2721" y2="55.794" gradientUnits="userSpaceOnUse">
<stop stop-color="#FBA36A"/>
<stop offset="1" stop-color="#D75400"/>
</linearGradient>
<linearGradient id="paint12_linear_1_250" x1="284.132" y1="84.3804" x2="284.132" y2="-10.1641" gradientUnits="userSpaceOnUse">
<stop stop-color="#006DF0"/>
<stop offset="1" stop-color="#00E7F0"/>
</linearGradient>
<linearGradient id="paint13_linear_1_250" x1="57.6079" y1="19.3904" x2="57.8164" y2="15.2958" gradientUnits="userSpaceOnUse">
<stop stop-color="#FBA36A"/>
<stop offset="1" stop-color="#D75400"/>
</linearGradient>
<linearGradient id="paint14_linear_1_250" x1="460.906" y1="84.3804" x2="460.906" y2="-10.1642" gradientUnits="userSpaceOnUse">
<stop stop-color="#006DF0"/>
<stop offset="1" stop-color="#00E7F0"/>
</linearGradient>
<linearGradient id="paint15_linear_1_250" x1="75.8145" y1="27.4904" x2="75.9374" y2="23.3889" gradientUnits="userSpaceOnUse">
<stop stop-color="#FBA36A"/>
<stop offset="1" stop-color="#D75400"/>
</linearGradient>
<linearGradient id="paint16_linear_1_250" x1="236.912" y1="84.3804" x2="236.912" y2="-10.1642" gradientUnits="userSpaceOnUse">
<stop stop-color="#006DF0"/>
<stop offset="1" stop-color="#00E7F0"/>
</linearGradient>
<linearGradient id="paint17_linear_1_250" x1="33.0405" y1="34.2404" x2="33.272" y2="30.1483" gradientUnits="userSpaceOnUse">
<stop stop-color="#FBA36A"/>
<stop offset="1" stop-color="#D75400"/>
</linearGradient>
<linearGradient id="paint18_linear_1_250" x1="425.837" y1="84.3804" x2="425.837" y2="-10.1642" gradientUnits="userSpaceOnUse">
<stop stop-color="#006DF0"/>
<stop offset="1" stop-color="#00E7F0"/>
</linearGradient>
<linearGradient id="paint19_linear_1_250" x1="40.7452" y1="42.3403" x2="40.868" y2="38.2388" gradientUnits="userSpaceOnUse">
<stop stop-color="#FBA36A"/>
<stop offset="1" stop-color="#D75400"/>
</linearGradient>
<linearGradient id="paint20_linear_1_250" x1="236.912" y1="84.3804" x2="236.912" y2="-10.1642" gradientUnits="userSpaceOnUse">
<stop stop-color="#006DF0"/>
<stop offset="1" stop-color="#00E7F0"/>
</linearGradient>
<linearGradient id="paint21_linear_1_250" x1="33.0405" y1="50.4404" x2="33.272" y2="46.3483" gradientUnits="userSpaceOnUse">
<stop stop-color="#FBA36A"/>
<stop offset="1" stop-color="#D75400"/>
</linearGradient>
<linearGradient id="paint22_linear_1_250" x1="71.8515" y1="84.3804" x2="71.8515" y2="-10.1642" gradientUnits="userSpaceOnUse">
<stop stop-color="#006DF0"/>
<stop offset="1" stop-color="#00E7F0"/>
</linearGradient>
<linearGradient id="paint23_linear_1_250" x1="53.5289" y1="67.7208" x2="68.256" y2="9.89312" gradientUnits="userSpaceOnUse">
<stop stop-color="#FBA36A"/>
<stop offset="1" stop-color="#D75400"/>
</linearGradient>
<linearGradient id="paint24_linear_1_250" x1="115.441" y1="84.3804" x2="115.441" y2="-10.1642" gradientUnits="userSpaceOnUse">
<stop stop-color="#006DF0"/>
<stop offset="1" stop-color="#00E7F0"/>
</linearGradient>
<linearGradient id="paint25_linear_1_250" x1="75.9141" y1="77.5615" x2="79.84" y2="62.1403" gradientUnits="userSpaceOnUse">
<stop stop-color="#FBA36A"/>
<stop offset="1" stop-color="#D75400"/>
</linearGradient>
</defs>
</svg>
