<svg width="620" height="872" viewBox="0 0 620 872" fill="none" xmlns="http://www.w3.org/2000/svg">
<g opacity="0.16" clip-path="url(#clip0_1_221)">
<path d="M258.072 127.155C399.725 61.1011 568.104 122.386 634.158 264.039C700.212 405.692 638.927 574.071 497.274 640.125C355.621 706.179 187.242 644.894 121.188 503.241C55.1341 361.588 116.419 193.209 258.072 127.155Z" stroke="#707070"/>
<path d="M310.477 239.537C452.13 173.483 620.415 234.566 686.352 375.968C752.288 517.37 690.91 685.547 549.256 751.601C407.603 817.655 239.318 756.572 173.381 615.17C107.445 473.768 168.823 305.591 310.477 239.537Z" stroke="#707070"/>
<path d="M565.149 120.781C706.803 54.7272 875.087 115.811 941.024 257.212C1006.96 398.614 945.582 566.791 803.929 632.845C662.275 698.899 493.991 637.816 428.054 496.414C362.117 355.012 423.496 186.835 565.149 120.781Z" stroke="#707070"/>
</g>
<defs>
<clipPath id="clip0_1_221">
<rect width="1060.16" height="871.351" fill="white" transform="translate(0.922363 0.51593)"/>
</clipPath>
</defs>
</svg>
